<svg width="285" height="60" viewBox="0 0 285 261" fill="none" xmlns="http://www.w3.org/2000/svg">
<g clip-path="url(#clip0_118_75)">
<path d="M32.7003 260.4C31.4003 258.6 31.4003 257 32.1003 255.4C32.4003 254.7 32.6003 254.1 32.6003 253.3C32.4003 232.3 32.8003 211.4 33.9003 190.4C34.3003 183.1 35.5003 176.1 40.2003 170.1C41.7003 168.2 41.0003 165 39.0003 163.7C36.1003 161.7 33.7003 159.3 33.1003 155.7C32.3003 150.4 34.3003 146.5 39.2003 143.6C40.0003 143.1 41.0003 142.8 40.7003 141.6C40.0003 138 40.6003 134.3 40.6003 130.7C40.5003 122.3 41.7003 114 44.1003 106C50.6003 84.2001 63.1003 66.6001 81.2003 53.1001C104.9 35.5001 131.5 29.7001 160.4 34.9001C178.8 38.2001 195.2 46.1001 209.3 58.5001C225.8 73.0001 236.6 90.8001 241.5 112.3C243.7 121.7 243.7 131.3 243.6 140.9C243.6 142.3 244 143.2 245.3 143.9C249.3 146.3 251.6 149.9 251 154.8C250.6 158.7 248.3 161.3 245.2 163.3C244.6 163.7 243.7 163.8 243.7 164.7C243.7 166.8 243.4 168.9 244.8 170.9C246.8 173.6 248 176.7 248.8 180C250.1 185 250.1 190.2 250.3 195.3C251 212.5 251.9 229.6 251.4 246.8C251.3 251.3 252.4 255.8 251.9 260.4C262.1 260.4 272.2 260.4 282.4 260.4C283.6 260.4 284 260 283.9 258.8C283.8 254.2 283.9 249.6 283.9 245.1C283.9 242.5 282.3 240.9 279.6 240.8C277.9 240.7 276.2 240.7 274.4 240.8C273 240.9 272.6 240.5 272.6 239C272.7 197.8 272.7 156.5 272.7 115.3C272.7 114.1 273.1 113.7 274.2 113.5C276.6 113.2 279 112.7 281.4 112.4C283.1 112.2 283.9 111.4 283.9 109.6C283.8 104.7 283.8 99.7001 283.9 94.8001C283.9 93.2001 283.3 92.9001 281.9 92.9001C278.4 93.0001 274.9 92.8001 271.4 93.0001C269.6 93.1001 268.9 92.4001 268.4 90.7001C263.5 73.1001 254.9 57.6001 242.4 44.3001C214.8 14.9001 180.6 0.600098 140.4 0.600098C126.2 0.600098 112.4 2.9001 98.9003 7.3001C74.6003 15.2001 54.3003 29.0001 37.9003 48.7001C27.5003 61.3001 19.9003 75.5001 15.2003 91.2001C14.8003 92.4001 14.3003 92.8001 13.0003 92.8001C9.8003 92.7001 6.6003 92.8001 3.3003 92.8001C1.4003 92.8001 0.400304 93.3001 0.500304 95.5001C0.600304 100.3 0.600304 105.1 0.600304 109.9C0.600304 111.8 1.4003 112.6 3.1003 112.9C5.4003 113.3 7.6003 113.7 9.9003 114C10.8003 114.2 11.5003 114.5 11.3003 115.6C10.9003 118.1 11.2003 120.6 11.2003 123.1C11.2003 161.6 11.3003 200.2 11.3003 238.7C11.3003 240.1 11.1003 240.8 9.5003 240.6C7.9003 240.4 6.2003 240.5 4.6003 240.6C1.9003 240.7 0.300304 242.3 0.300304 245C0.200304 249.7 0.300304 254.3 0.300304 259C0.300304 260.3 0.800304 260.6 1.9003 260.5C4.3003 260.4 6.6003 260.5 9.0003 260.5C16.9003 260.4 24.7003 260.4 32.7003 260.4ZM141.6 243.8C141.6 243.7 141.6 243.6 141.6 243.4C161.9 243.4 182.1 243.4 202.4 243.4C205.8 243.4 207.5 245.1 207.5 248.5C207.5 250.7 207.5 252.9 207.5 255.2C207.5 258.7 209 260.2 212.4 260.2C221.9 260.2 231.3 260.2 240.8 260.2C243.7 260.2 244.5 259.5 244.5 256.5C244.5 252.3 244.4 248.1 244.4 243.8C244.4 224.8 244.1 205.9 243.7 186.9C243.6 183.1 242.6 179.9 240.2 177.1C236.1 172.4 232.1 167.7 228 162.9C227.6 162.5 226.9 162.1 227.1 161.5C227.3 160.9 228.1 160.8 228.7 160.7C233 160.2 237.1 159.3 241.3 158.3C244.2 157.6 245.3 156.2 245.4 153.4C245.5 150.3 244.4 148.6 241.6 147.8C238.5 146.9 235.4 146.2 232.3 145.3C230.4 144.8 229.3 145.2 228.9 147.3C228.3 150.4 227.4 153.4 226.7 156.4C226.5 157.2 226.2 157.9 225.2 158C224.2 158.2 224.1 157.3 223.7 156.8C222.8 155.4 222 154 221.2 152.5C216.7 144.6 212.3 136.7 207.8 128.9C204.7 123.5 200.1 120.2 193.8 119.4C190.9 119 188 118.9 185.1 118.5C174 117 162.9 116.2 151.8 116C140.9 115.7 130.1 116 119.2 116.4C109.9 116.8 100.7 118.3 91.5003 119.1C84.8003 119.7 79.9003 123 76.7003 129C75.4003 131.5 73.9003 133.8 72.6003 136.2C68.6003 143 64.7003 149.9 60.7003 156.7C60.3003 157.3 60.2003 158.3 59.1003 158.1C58.0003 157.9 57.8003 157.1 57.6003 156.2C57.3003 154.9 57.0003 153.6 56.6003 152.3C56.0003 150.3 55.9003 148.1 54.6003 146.3C54.1003 145.6 53.7003 145.1 52.7003 145.4C49.4003 146.2 46.0003 146.9 42.7003 147.7C40.1003 148.4 38.9003 150.2 38.9003 153C38.9003 155.8 40.0003 157.4 42.8003 158.1C46.8003 159.1 50.8003 160.1 54.9003 160.7C55.6003 160.8 56.7003 160.7 57.0003 161.4C57.3003 162.2 56.4003 162.8 55.9003 163.3C51.9003 167.9 47.9003 172.4 43.8003 177C41.4003 179.7 40.3003 182.8 40.4003 186.4C40.5003 190.8 40.4003 195.3 40.2003 199.7C39.5003 218.7 40.1003 237.8 39.8003 256.8C39.8003 259.1 40.7003 260 42.9003 260C52.4003 260 61.9003 259.9 71.5003 259.8C74.2003 259.8 76.2003 258 76.3003 255.6C76.4003 253.5 76.5003 251.4 76.3003 249.4C75.9003 245.3 77.4003 243.5 81.5003 243.5C101.5 243.8 121.5 243.8 141.6 243.8Z" fill="#141212" stroke="#0F0D18" stroke-miterlimit="10"/>
<g clip-path="url(#clip1_118_75)">
<path d="M192.6 222C188.9 227.1 183.8 229.6 177.7 230.5C176.7 230.6 175.6 230.7 174.6 230.8C172 230.9 169.5 231 166.9 231C163.3 230.9 159.6 231 156 231.4C147 231.4 138 231.4 129 231.4C125.9 231.1 122.8 230.9 119.7 231.1C115.1 230.9 110.6 230.7 106 230.5C100.4 230.1 96.1005 227.3 92.7005 223C91.4005 221.4 90.3005 219.9 89.1005 218.5C87.3005 214.2 87.3005 214.2 92.0005 214.2C101.8 214.2 111.7 214.1 121.5 214.1C145.3 214.1 169.2 214.1 193 214.1C194.1 214.1 195.2 214 196.3 214.5C196.9 216.1 195.6 217.2 195.3 218.6C195 219 194.7 219.5 194.3 220C194.2 220.2 194 220.4 193.9 220.5C193.4 221 193 221.5 192.6 222Z" fill="#FAFAFA"/>
</g>
<path d="M88.9926 202.265C84.1926 202.165 79.3926 201.665 74.8926 200.365C69.8926 198.965 64.7926 198.565 59.7926 197.665C57.5926 197.265 56.0926 196.165 55.1926 194.365C52.2926 189.365 51.4926 183.765 52.2926 178.065C52.7926 174.165 55.0926 173.165 59.0926 174.665C62.6926 176.065 66.1926 177.765 69.6926 179.265C74.7926 181.365 80.0926 183.165 85.3926 184.565C89.1926 185.565 92.3926 187.565 95.6926 189.565C97.1926 190.465 98.4926 191.565 99.1926 193.265C101.393 198.365 99.1926 200.365 94.2926 202.065C92.6926 202.665 90.7926 202.265 88.9926 202.265Z" fill="#FDFDFD"/>
<path d="M192.193 202.332C190.493 202.232 189.193 202.332 187.993 202.032C182.893 200.732 181.493 196.232 184.893 192.132C186.393 190.332 188.393 189.432 190.393 188.332C195.493 185.332 201.393 184.532 206.793 182.432C211.693 180.632 216.593 178.832 221.093 176.332C222.893 175.332 224.893 174.432 226.993 174.132C229.493 173.732 230.793 175.132 231.193 177.232C232.193 183.332 231.493 189.132 227.893 194.332C226.793 195.832 225.193 196.832 223.093 197.132C217.593 197.932 212.093 198.332 206.793 199.832C201.793 201.132 196.793 201.632 192.193 202.332Z" fill="#FAFAFA"/>
</g>
<defs>
<clipPath id="clip0_118_75">
<rect width="284.5" height="260.9" fill="white"/>
</clipPath>
<clipPath id="clip1_118_75">
<rect width="108.5" height="17.4" fill="white" transform="translate(88 214)"/>
</clipPath>
</defs>
</svg>
